# Blender v2.70 (sub 0) OBJ File: ''
# www.blender.org
v -8.741117 -3.930290 6.361739
v 9.258210 -3.930290 6.430646
v -8.741117 -3.930290 -5.634692
v 6.126811 -3.930290 -5.634692
v -21.792816 -3.930290 6.361739
v -21.792816 -3.930290 -5.634692
v -33.224968 -3.930290 9.505579
v -33.224968 -3.930290 -2.490849
v -40.590130 -3.930290 14.342272
v -44.913383 -3.930290 3.151928
v -43.218754 -3.930290 15.817036
v -53.526375 -3.930290 9.679663
v -50.626698 -3.930290 24.541948
v -60.934315 -3.930290 18.404573
v -54.579853 -3.930290 32.210743
v -66.529182 -3.930290 31.148781
v -54.579853 -3.930290 32.210743
v -66.529182 -3.930290 31.148781
v -54.166046 -3.930290 43.080978
v -65.955276 -3.930290 45.300938
v -49.931541 -3.930290 46.188011
v -58.995556 -3.930290 54.046616
v -40.084019 -3.930290 49.629353
v -42.299072 -3.930290 61.419502
v -24.001896 -3.930290 50.845909
v -20.039845 -3.930290 62.169167
v 4.216202 -3.930290 51.614277
v -1.068588 -3.930290 62.383904
v 12.081095 -3.930290 59.970726
v 6.796303 -3.930290 70.740349
v 22.945309 -3.930290 72.111862
v 12.644981 -3.930290 78.261436
v 23.789738 -3.930290 86.209160
v 11.800553 -3.930290 85.792603
v 21.399845 -3.930290 98.712891
v 12.224226 -3.930290 90.984879
v 2.229170 -3.930290 103.628448
v -6.946448 -3.930290 95.900444
v -23.323780 -3.930290 103.903572
v -29.565956 -3.930290 93.659096
v -50.359348 -3.930290 103.903572
v -56.601521 -3.930290 93.659096
v -78.382202 -3.930290 104.325119
v -73.801788 -3.930290 93.237549
v -99.027550 -3.930290 96.951782
v -94.447136 -3.930290 85.864212
v -115.866760 -3.930290 80.816704
v -105.135056 -3.930290 75.455269
v -118.324516 -3.930290 64.103806
v -107.592827 -3.930290 58.742374
v -117.972702 -3.930290 37.222912
v -105.978432 -3.930290 37.450817
v -117.972702 -3.930290 19.526903
v -105.978432 -3.930290 19.754810
v -118.464256 -3.930290 -3.576216
v -106.469994 -3.930290 -3.348310
v -118.009483 -3.930290 -43.605755
v -100.408257 -3.930290 -34.829144
v -103.700760 -3.930290 -55.506542
v -90.139175 -3.930290 -41.607475
v -85.810539 -3.930290 -60.917133
v -76.569832 -3.930290 -45.044899
v -54.687206 -3.930290 -62.500229
v -56.206120 -3.930290 -45.945671
v -10.447194 -3.930290 -69.973770
v -11.966105 -3.930290 -44.575356
v 38.216820 -3.930290 -69.482231
v 36.697914 -3.930290 -44.083805
v 135.053314 -3.930290 -61.025558
v 124.225082 -3.930290 -47.263798
v 150.991669 -3.930290 -54.655251
v 137.262421 -3.930290 -43.698627
v 162.510712 -3.930290 -44.938656
v 143.439392 -3.930290 -38.668560
v 172.683365 -3.930290 -27.840559
v 151.945862 -3.930290 -26.273321
v 176.124237 -3.930290 -0.804989
v 158.179535 -3.930290 1.227710
v 175.632690 -3.930290 25.247465
v 163.739044 -3.930290 26.814697
v 175.538483 -3.930290 65.417007
v 165.799438 -3.930290 58.412289
v 166.098923 -3.930290 75.573967
v 160.492371 -3.930290 64.968231
v 146.271637 -3.930290 76.752808
v 146.893845 -3.930290 64.772499
v 127.004433 -3.930290 75.779594
v 131.752167 -3.930290 64.762604
v 108.696060 -3.930290 62.840958
v 118.600945 -3.930290 56.072784
v 99.848053 -3.930290 53.009846
v 109.752937 -3.930290 46.241676
v 90.508499 -3.930290 34.822281
v 100.413383 -3.930290 28.054108
v 82.152046 -3.930290 10.736052
v 92.056931 -3.930290 3.967878
v 78.076012 -3.930290 5.939089
v 79.420074 -3.930290 -5.981835
v 55.464447 -3.930290 6.430646
v 56.808514 -3.930290 -5.490280
v 28.428883 -3.930290 7.413758
v 29.772945 -3.930290 -4.507169
vt 0.436035 0.347153
vt 0.425025 0.387833
vt 0.374745 0.387321
vt 0.330566 0.386874
vt 0.331036 0.346243
vt 0.291876 0.375816
vt 0.292467 0.335032
vt 0.252174 0.356153
vt 0.267707 0.318032
vt 0.222754 0.333536
vt 0.258796 0.312791
vt 0.196867 0.303563
vt 0.233843 0.281639
vt 0.174636 0.260227
vt 0.174404 0.259288
vt 0.219869 0.252397
vt 0.176509 0.209005
vt 0.199122 0.177940
vt 0.231818 0.202837
vt 0.254398 0.149885
vt 0.264268 0.189158
vt 0.329043 0.143129
vt 0.392553 0.138764
vt 0.412326 0.173812
vt 0.417284 0.109281
vt 0.437045 0.144318
vt 0.435421 0.082985
vt 0.471077 0.101594
vt 0.431154 0.057939
vt 0.431579 0.040480
vt 0.460809 0.012860
vt 0.366473 0.027690
vt 0.395711 0.000078
vt 0.291186 0.039464
vt 0.310151 0.004018
vt 0.200749 0.044415
vt 0.219759 0.009055
vt 0.143352 0.048823
vt 0.075850 0.076856
vt 0.058728 0.040737
vt 0.042009 0.113278
vt 0.005456 0.097239
vt 0.036414 0.169257
vt 0.000078 0.153136
vt 0.044720 0.239460
vt 0.047234 0.297230
vt 0.007178 0.298822
vt 0.045314 0.376421
vt 0.004740 0.376788
vt 0.064584 0.483404
vt 0.004828 0.512416
vt 0.098976 0.506500
vt 0.052848 0.553013
vt 0.144598 0.518407
vt 0.113037 0.571688
vt 0.213241 0.522020
vt 0.362642 0.518865
vt 0.366921 0.604666
vt 0.527054 0.518809
vt 0.531322 0.604666
vt 0.822687 0.532533
vt 0.858804 0.579401
vt 0.866860 0.520932
vt 0.912874 0.558422
vt 0.887903 0.504148
vt 0.952128 0.525986
vt 0.917070 0.462557
vt 0.987085 0.468562
vt 0.939073 0.369849
vt 0.999636 0.377331
vt 0.958733 0.283585
vt 0.966776 0.176893
vt 0.999922 0.153559
vt 0.949069 0.154560
vt 0.968375 0.118917
vt 0.903115 0.154756
vt 0.851954 0.154271
vt 0.836289 0.116884
vt 0.807221 0.183183
vt 0.773985 0.159975
vt 0.776988 0.216097
vt 0.743753 0.192890
vt 0.744809 0.277230
vt 0.711574 0.254023
vt 0.715749 0.358328
vt 0.682514 0.335120
vt 0.672710 0.391514
vt 0.596323 0.389079
vt 0.592190 0.348751
vt 0.504993 0.384832
vt 0.500862 0.344497
vt 0.375181 0.346740
vt 0.219999 0.253211
vt 0.218126 0.214434
vt 0.317958 0.181858
vt 0.471202 0.054250
vt 0.126170 0.012655
vt 0.005449 0.241597
vt 0.217871 0.577907
vt 0.998866 0.289288
vt 0.901423 0.114255
vt 0.668577 0.351188
vn 0.000000 1.000000 0.000000
vn 0.000000 0.000000 1.000000
s off
f 2/1/1 4/2/1 3/3/1
f 3/3/1 6/4/1 5/5/1
f 6/4/1 8/6/1 7/7/1
f 8/6/1 10/8/1 9/9/1
f 9/9/1 10/8/1 12/10/1
f 11/11/1 12/10/1 14/12/1
f 13/13/1 14/12/1 16/14/1
f 16/14/2 18/15/2 17/16/2
f 17/16/1 18/15/1 20/17/1
f 20/17/1 22/18/1 21/19/1
f 22/18/1 24/20/1 23/21/1
f 23/21/1 24/20/1 26/22/1
f 26/22/1 28/23/1 27/24/1
f 27/24/1 28/23/1 30/25/1
f 29/26/1 30/25/1 32/27/1
f 31/28/1 32/27/1 34/29/1
f 34/29/1 36/30/1 35/31/1
f 35/31/1 36/30/1 38/32/1
f 37/33/1 38/32/1 40/34/1
f 39/35/1 40/34/1 42/36/1
f 41/37/1 42/36/1 44/38/1
f 44/38/1 46/39/1 45/40/1
f 45/40/1 46/39/1 48/41/1
f 47/42/1 48/41/1 50/43/1
f 49/44/1 50/43/1 52/45/1
f 52/45/1 54/46/1 53/47/1
f 54/46/1 56/48/1 55/49/1
f 56/48/1 58/50/1 57/51/1
f 57/51/1 58/50/1 60/52/1
f 59/53/1 60/52/1 62/54/1
f 61/55/1 62/54/1 64/56/1
f 64/56/1 66/57/1 65/58/1
f 66/57/1 68/59/1 67/60/1
f 68/59/1 70/61/1 69/62/1
f 70/61/1 72/63/1 71/64/1
f 72/63/1 74/65/1 73/66/1
f 74/65/1 76/67/1 75/68/1
f 76/67/1 78/69/1 77/70/1
f 77/70/1 78/69/1 80/71/1
f 80/71/1 82/72/1 81/73/1
f 82/72/1 84/74/1 83/75/1
f 83/75/1 84/74/1 86/76/1
f 86/76/1 88/77/1 87/78/1
f 88/77/1 90/79/1 89/80/1
f 90/79/1 92/81/1 91/82/1
f 91/82/1 92/81/1 94/83/1
f 93/84/1 94/83/1 96/85/1
f 95/86/1 96/85/1 98/87/1
f 98/87/1 100/88/1 99/89/1
f 100/88/1 102/90/1 101/91/1
f 101/91/1 102/90/1 4/2/1
f 1/92/1 2/1/1 3/3/1
f 1/92/1 3/3/1 5/5/1
f 5/5/1 6/4/1 7/7/1
f 7/7/1 8/6/1 9/9/1
f 11/11/1 9/9/1 12/10/1
f 13/13/1 11/11/1 14/12/1
f 15/93/1 13/13/1 16/14/1
f 15/93/2 16/14/2 17/16/2
f 19/94/1 17/16/1 20/17/1
f 19/94/1 20/17/1 21/19/1
f 21/19/1 22/18/1 23/21/1
f 25/95/1 23/21/1 26/22/1
f 25/95/1 26/22/1 27/24/1
f 29/26/1 27/24/1 30/25/1
f 31/28/1 29/26/1 32/27/1
f 33/96/1 31/28/1 34/29/1
f 33/96/1 34/29/1 35/31/1
f 37/33/1 35/31/1 38/32/1
f 39/35/1 37/33/1 40/34/1
f 41/37/1 39/35/1 42/36/1
f 43/97/1 41/37/1 44/38/1
f 43/97/1 44/38/1 45/40/1
f 47/42/1 45/40/1 48/41/1
f 49/44/1 47/42/1 50/43/1
f 51/98/1 49/44/1 52/45/1
f 51/98/1 52/45/1 53/47/1
f 53/47/1 54/46/1 55/49/1
f 55/49/1 56/48/1 57/51/1
f 59/53/1 57/51/1 60/52/1
f 61/55/1 59/53/1 62/54/1
f 63/99/1 61/55/1 64/56/1
f 63/99/1 64/56/1 65/58/1
f 65/58/1 66/57/1 67/60/1
f 67/60/1 68/59/1 69/62/1
f 69/62/1 70/61/1 71/64/1
f 71/64/1 72/63/1 73/66/1
f 73/66/1 74/65/1 75/68/1
f 75/68/1 76/67/1 77/70/1
f 79/100/1 77/70/1 80/71/1
f 79/100/1 80/71/1 81/73/1
f 81/73/1 82/72/1 83/75/1
f 85/101/1 83/75/1 86/76/1
f 85/101/1 86/76/1 87/78/1
f 87/78/1 88/77/1 89/80/1
f 89/80/1 90/79/1 91/82/1
f 93/84/1 91/82/1 94/83/1
f 95/86/1 93/84/1 96/85/1
f 97/102/1 95/86/1 98/87/1
f 97/102/1 98/87/1 99/89/1
f 99/89/1 100/88/1 101/91/1
f 2/1/1 101/91/1 4/2/1
