# Blender v2.70 (sub 0) OBJ File: ''
# www.blender.org
v 0.002880 0.373914 0.996424
v 0.002880 0.462113 0.977209
v 0.002880 0.546922 0.920304
v 0.002880 0.625082 0.827894
v 0.002880 0.693590 0.703531
v 0.002880 0.749814 0.551994
v 0.002879 0.791591 0.379107
v 0.002879 0.817318 0.191514
v 0.002879 0.826005 -0.003576
v 0.002878 0.817318 -0.198666
v 0.002878 0.791591 -0.386259
v 0.002878 0.749814 -0.559146
v 0.002878 0.693590 -0.710683
v 0.002877 0.625082 -0.835046
v 0.002877 0.546922 -0.927456
v 0.002877 0.462112 -0.984361
v 0.002877 0.373914 -1.003576
v 0.002877 0.285715 -0.984361
v 0.002877 0.200906 -0.927455
v 0.002877 0.122746 -0.835045
v 0.002877 0.054238 -0.710682
v 0.002878 0.005878 -0.559146
v 0.002878 0.000670 -0.386259
v 0.002878 0.000136 -0.198665
v 0.002878 0.006989 -0.003575
v 0.002879 0.005994 0.191515
v 0.002879 0.014571 0.379108
v 0.002879 0.017057 0.551995
v 0.002880 0.054238 0.703532
v 0.002880 0.122746 0.827894
v 0.002880 0.200907 0.920304
v 0.002880 0.285716 0.977210
vt 0.950718 0.148846
vt 0.173805 0.144047
vt 0.259322 0.082380
vt 0.567605 0.000000
vt 0.674429 0.010269
vt 0.460080 0.008945
vt 0.355985 0.036761
vt 0.776447 0.039359
vt 0.986445 0.780548
vt 0.148003 0.851154
vt 0.082448 0.774963
vt 1.000000 0.405216
vt 0.014115 0.399126
vt 0.048800 0.305523
vt 0.000000 0.496606
vt 0.995232 0.502754
vt 0.995929 0.694143
vt 0.034836 0.688206
vt 1.000000 0.600351
vt 0.924916 0.855953
vt 0.742736 0.963239
vt 0.228982 0.913849
vt 0.839399 0.917620
vt 0.322273 0.960641
vt 0.638641 0.991055
vt 0.424291 0.989731
vt 0.869738 0.086150
vt 0.006996 0.594216
vt 0.993000 0.311355
vt 0.993133 0.224893
vt 0.102720 0.219393
vt 0.531116 1.000000
vn 1.000000 -0.000000 -0.000001
vn 1.000000 -0.000000 -0.000002
s off
f 29/1/1 5/2/1 4/3/1
f 1/4/2 32/5/2 2/6/2
f 3/7/2 2/6/2 31/8/2
f 22/9/1 13/10/1 12/11/1
f 26/12/2 8/13/2 7/14/2
f 9/15/2 8/13/2 25/16/2
f 23/17/1 11/18/1 24/19/1
f 21/20/1 13/10/1 22/9/1
f 19/21/2 14/22/2 20/23/2
f 2/6/2 32/5/2 31/8/2
f 15/24/1 18/25/1 16/26/1
f 30/27/1 29/1/1 4/3/1
f 11/18/2 23/17/2 12/11/2
f 9/15/2 25/16/2 10/28/2
f 27/29/2 26/12/2 7/14/2
f 5/2/1 28/30/1 6/31/1
f 3/7/1 30/27/1 4/3/1
f 27/29/2 7/14/2 6/31/2
f 15/24/1 19/21/1 18/25/1
f 28/30/2 27/29/2 6/31/2
f 18/25/2 17/32/2 16/26/2
f 19/21/2 15/24/2 14/22/2
f 10/28/1 25/16/1 24/19/1
f 13/10/1 21/20/1 20/23/1
f 11/18/1 10/28/1 24/19/1
f 8/13/2 26/12/2 25/16/2
f 3/7/1 31/8/1 30/27/1
f 14/22/1 13/10/1 20/23/1
f 23/17/1 22/9/1 12/11/1
f 5/2/2 29/1/2 28/30/2
