# Blender v2.70 (sub 0) OBJ File: ''
# www.blender.org
o sphere
v -0.338849 -0.923880 -0.177842
v -0.626112 -0.707107 -0.328609
v -0.401682 -0.707107 -0.581937
v -0.818055 -0.382684 -0.429348
v -0.524823 -0.382684 -0.760338
v -0.885456 0.000000 -0.464723
v -0.568065 0.000000 -0.822984
v -0.818055 0.382683 -0.429348
v -0.524823 0.382683 -0.760338
v -0.626112 0.707107 -0.328609
v -0.401682 0.707107 -0.581937
v -0.338849 0.923880 -0.177842
v -0.217389 0.923880 -0.314942
v -0.217389 -0.923880 -0.314942
v -0.085232 -0.707107 -0.701951
v -0.111361 -0.382684 -0.917143
v -0.120537 0.000000 -0.992709
v -0.111361 0.382683 -0.917143
v -0.085232 0.707107 -0.701951
v -0.046128 0.923880 -0.379893
v 0.250743 -0.707107 -0.661156
v 0.135701 -0.923880 -0.357815
v 0.327612 -0.382684 -0.863842
v 0.354605 0.000000 -0.935016
v 0.327612 0.382683 -0.863842
v 0.250743 0.707107 -0.661156
v 0.135701 0.923880 -0.357815
v 0.529277 -0.707107 -0.468898
v 0.286442 -0.923880 -0.253766
v 0.691533 -0.382684 -0.612645
v 0.748510 0.000000 -0.663123
v 0.691533 0.382683 -0.612645
v 0.529277 0.707107 -0.468898
v 0.286442 0.923880 -0.253766
v 0.686559 -0.707107 -0.169222
v 0.897033 -0.382684 -0.221099
v 0.970942 0.000000 -0.239316
v 0.897033 0.382683 -0.221099
v 0.686559 0.707107 -0.169222
v 0.371563 0.923880 -0.091582
v 0.371563 -0.923880 -0.091582
v 0.686559 -0.707107 0.169222
v 0.897033 -0.382684 0.221099
v 0.970941 -0.000000 0.239316
v 0.897033 0.382683 0.221099
v 0.686559 0.707107 0.169222
v 0.371563 0.923880 0.091582
v 0.529277 -0.707107 0.468899
v 0.286442 -0.923880 0.253766
v 0.691534 -0.382684 0.612645
v 0.748510 -0.000000 0.663123
v 0.691534 0.382683 0.612645
v 0.529277 0.707107 0.468899
v 0.286442 0.923880 0.253766
v 0.250743 -0.707107 0.661156
v 0.327612 -0.382684 0.863842
v 0.354605 -0.000000 0.935016
v 0.327612 0.382683 0.863842
v 0.250743 0.707107 0.661156
v 0.135701 0.923880 0.357815
v -0.085232 -0.707107 0.701951
v -0.046128 -0.923880 0.379893
v -0.111361 -0.382684 0.917143
v -0.120537 -0.000000 0.992709
v -0.111361 0.382683 0.917143
v -0.085232 0.707107 0.701951
v -0.046127 0.923880 0.379893
v -0.401683 -0.707107 0.581937
v -0.217389 -0.923880 0.314942
v -0.524823 -0.382684 0.760338
v -0.568065 -0.000000 0.822984
v -0.524823 0.382683 0.760338
v -0.401683 0.707107 0.581937
v -0.217389 0.923880 0.314942
v -0.626112 -0.707107 0.328609
v -0.818055 -0.382684 0.429348
v -0.885456 -0.000000 0.464723
v -0.818055 0.382683 0.429348
v -0.626112 0.707107 0.328609
v -0.338849 0.923880 0.177842
v -0.923880 -0.382684 -0.000000
v -0.707107 -0.707107 -0.000000
v -0.707107 0.707107 0.000000
v -0.382684 0.923880 0.000000
v 0.000000 -1.000000 -0.000000
v -0.382683 -0.923880 -0.000000
v -1.000000 0.000000 0.000000
v -0.923880 0.382683 0.000000
v 0.000000 1.000000 0.000000
v -0.046128 -0.923880 -0.379893
v 0.371563 -0.923880 0.091582
v 0.135701 -0.923880 0.357815
v -0.338849 -0.923880 0.177842
vt 0.060467 0.161295
vt 0.000000 0.214224
vt 0.004618 0.128485
vt 0.258662 0.557604
vt 0.214677 0.614386
vt 0.139503 0.558814
vt 0.166109 0.696768
vt 0.084741 0.636617
vt 0.120353 0.792208
vt 0.045179 0.736636
vt 0.084373 0.886177
vt 0.026838 0.843644
vt 0.063649 0.964369
vt 0.032511 0.941350
vt 0.062966 0.114894
vt 0.042499 0.051173
vt 0.957536 0.009085
vt 0.988964 0.091859
vt 0.903359 0.079990
vt 1.000000 0.197263
vt 0.907342 0.184415
vt 0.988964 0.309248
vt 0.903359 0.297378
vt 0.957536 0.410766
vt 0.892017 0.401682
vt 0.910502 0.486363
vt 0.875043 0.481446
vt 0.104964 0.000000
vt 0.117273 0.045359
vt 0.892017 0.000000
vt 0.806681 0.079990
vt 0.802698 0.184415
vt 0.806681 0.297378
vt 0.818023 0.401682
vt 0.834998 0.481446
vt 0.710041 0.068433
vt 0.667977 0.084383
vt 0.621084 0.008632
vt 0.818023 0.000000
vt 0.721076 0.091859
vt 0.710041 0.197263
vt 0.721077 0.309248
vt 0.752504 0.410766
vt 0.799539 0.486363
vt 0.602441 0.093251
vt 0.699214 0.186004
vt 0.613588 0.197592
vt 0.710041 0.298025
vt 0.617359 0.310568
vt 0.698807 0.403392
vt 0.613181 0.414980
vt 0.667224 0.486063
vt 0.601689 0.494932
vt 0.662536 0.578408
vt 0.627535 0.575095
vt 0.587611 0.494932
vt 0.585616 0.013432
vt 0.528447 0.093008
vt 0.516910 0.197273
vt 0.512715 0.310223
vt 0.516502 0.414661
vt 0.527694 0.494688
vt 0.597112 0.596405
vt 0.531397 0.534309
vt 0.288815 0.076473
vt 0.301733 0.159002
vt 0.223764 0.131410
vt 0.431328 0.185122
vt 0.462945 0.083708
vt 0.420082 0.297071
vt 0.430920 0.402510
vt 0.496521 0.610165
vt 0.422881 0.601009
vt 0.578237 0.637458
vt 0.279848 0.242967
vt 0.360680 0.202679
vt 0.332085 0.312385
vt 0.360680 0.274124
vt 0.376447 0.163922
vt 0.415630 0.725076
vt 0.360680 0.745673
vt 0.490972 0.705122
vt 0.575234 0.688848
vt 0.228173 0.309132
vt 0.183953 0.212660
vt 0.264569 0.398834
vt 0.360680 0.374536
vt 0.287601 0.468108
vt 0.448358 0.845677
vt 0.396105 0.876211
vt 0.516020 0.797426
vt 0.588790 0.738803
vt 0.158547 0.342341
vt 0.146272 0.230632
vt 0.173599 0.442222
vt 0.189136 0.515071
vt 0.513567 0.935185
vt 0.466687 0.973094
vt 0.565929 0.865932
vt 0.615801 0.775878
vt 0.086921 0.334984
vt 0.080014 0.432610
vt 0.087840 0.504666
vt 0.300113 1.000000
vt 0.264309 0.940925
vt 0.321927 0.857737
vt 0.629265 0.894946
vt 0.650078 0.791580
vt 0.005255 0.372199
vt 0.029702 0.288747
vt 0.194553 1.000000
vt 0.144901 0.942605
vt 0.683768 0.782313
vt 0.691517 0.877821
vt 0.076542 0.201627
vt 0.138642 0.124103
vt 0.293759 0.688112
vt 0.251707 0.776568
vt 0.199435 0.865934
vt 0.096406 0.994907
vt 0.655589 0.678733
vt 0.709155 0.750197
vt 0.720421 0.702593
vt 0.083467 0.073054
vt 0.714987 0.650404
vt 0.694096 0.605586
vt 0.156640 0.038154
vt 0.192548 0.053090
vt 0.216773 0.086745
vt 0.211919 0.176851
vt 0.107508 0.226650
vt 0.358633 0.763102
vt 0.201126 0.515071
vt 0.643849 0.000000
vt 0.752504 0.009085
vt 0.652284 0.501054
vt 0.545571 0.013300
vt 0.468449 0.501899
vt 0.368528 0.611384
vt 0.360680 0.921680
vt 0.596319 0.973094
vt 0.319189 0.614031
vn -0.360973 -0.913114 -0.189428
vn -0.638783 -0.692465 -0.335246
vn -0.409803 -0.692465 -0.593707
vn -0.821711 -0.372539 -0.431257
vn -0.527146 -0.372539 -0.763726
vn -0.885433 0.000000 -0.464705
vn -0.568041 0.000000 -0.822962
vn -0.821711 0.372539 -0.431257
vn -0.527146 0.372539 -0.763726
vn -0.638783 0.692465 -0.335246
vn -0.409803 0.692465 -0.593707
vn -0.360973 0.913114 -0.189428
vn -0.231574 0.913114 -0.335490
vn -0.231574 -0.913114 -0.335490
vn -0.086947 -0.692465 -0.716147
vn -0.111850 -0.372539 -0.921232
vn -0.120518 0.000000 -0.992706
vn -0.111850 0.372539 -0.921232
vn -0.086947 0.692465 -0.716147
vn -0.049135 0.913114 -0.404675
vn 0.255806 -0.692465 -0.674551
vn 0.144536 -0.913114 -0.381176
vn 0.329051 -0.372539 -0.867702
vn 0.354595 0.000000 -0.934996
vn 0.329051 0.372539 -0.867702
vn 0.255806 0.692465 -0.674551
vn 0.144536 0.913114 -0.381176
vn 0.539994 -0.692465 -0.478378
vn 0.305124 -0.913114 -0.270333
vn 0.694601 -0.372539 -0.615375
vn 0.748497 0.000000 -0.663106
vn 0.694601 0.372539 -0.615375
vn 0.539994 0.692465 -0.478378
vn 0.305124 0.913114 -0.270333
vn 0.700461 -0.692465 -0.172643
vn 0.901028 -0.372539 -0.222083
vn 0.970916 0.000000 -0.239296
vn 0.901028 0.372539 -0.222083
vn 0.700461 0.692465 -0.172643
vn 0.395825 0.913114 -0.097537
vn 0.395825 -0.913114 -0.097537
vn 0.700461 -0.692465 0.172643
vn 0.901028 -0.372539 0.222083
vn 0.970916 0.000000 0.239296
vn 0.901028 0.372539 0.222083
vn 0.700461 0.692465 0.172643
vn 0.395825 0.913114 0.097537
vn 0.539994 -0.692465 0.478378
vn 0.305124 -0.913114 0.270333
vn 0.694601 -0.372539 0.615375
vn 0.748497 0.000000 0.663106
vn 0.694601 0.372539 0.615375
vn 0.539994 0.692465 0.478378
vn 0.305124 0.913114 0.270333
vn 0.255806 -0.692465 0.674551
vn 0.329051 -0.372539 0.867702
vn 0.354595 0.000000 0.934996
vn 0.329051 0.372539 0.867702
vn 0.255806 0.692465 0.674551
vn 0.144536 0.913114 0.381176
vn -0.086947 -0.692465 0.716147
vn -0.049135 -0.913114 0.404706
vn -0.111850 -0.372539 0.921232
vn -0.120518 0.000000 0.992706
vn -0.111850 0.372539 0.921232
vn -0.086947 0.692465 0.716147
vn -0.049135 0.913114 0.404675
vn -0.409803 -0.692465 0.593707
vn -0.231574 -0.913114 0.335490
vn -0.527146 -0.372539 0.763726
vn -0.568041 0.000000 0.822962
vn -0.527146 0.372539 0.763726
vn -0.409803 0.692465 0.593707
vn -0.231574 0.913114 0.335490
vn -0.638783 -0.692465 0.335246
vn -0.821711 -0.372539 0.431257
vn -0.885433 0.000000 0.464705
vn -0.821711 0.372539 0.431257
vn -0.638783 0.692465 0.335246
vn -0.360973 0.913114 0.189428
vn -0.928007 -0.372539 0.000000
vn -0.721427 -0.692465 0.000000
vn -0.721427 0.692465 0.000000
vn -0.407666 0.913114 0.000000
vn -0.407666 -0.913114 0.000000
vn 0.000000 -1.000000 0.000000
vn -1.000000 0.000000 0.000000
vn -0.928007 0.372539 0.000000
vn 0.000000 1.000000 0.000000
vn -0.049135 -0.913114 -0.404675
vn 0.395825 -0.913114 0.097537
vn 0.144536 -0.913114 0.381176
vn -0.360973 -0.913114 0.189428
s 1
f 1/1/1 2/2/2 3/3/3
f 2/4/2 4/5/4 5/6/5
f 6/7/6 7/8/7 5/6/5
f 8/9/8 9/10/9 7/8/7
f 10/11/10 11/12/11 9/10/9
f 12/13/12 13/14/13 11/12/11
f 14/15/14 3/3/3 15/16/15
f 3/17/3 5/18/5 16/19/16
f 5/18/5 7/20/7 17/21/17
f 9/22/9 18/23/18 17/21/17
f 9/22/9 11/24/11 19/25/19
f 13/26/13 20/27/20 19/25/19
f 15/16/15 21/28/21 22/29/22
f 15/30/15 16/19/16 23/31/23
f 16/19/16 17/21/17 24/32/24
f 18/23/18 25/33/25 24/32/24
f 19/25/19 26/34/26 25/33/25
f 20/27/20 27/35/27 26/34/26
f 21/36/21 28/37/28 29/38/29
f 21/39/21 23/31/23 30/40/30
f 23/31/23 24/32/24 31/41/31
f 25/33/25 32/42/32 31/41/31
f 25/33/25 26/34/26 33/43/33
f 27/35/27 34/44/34 33/43/33
f 29/38/29 28/37/28 35/45/35
f 30/46/30 36/47/36 35/45/35
f 31/48/31 37/49/37 36/47/36
f 32/50/32 38/51/38 37/49/37
f 33/52/33 39/53/39 38/51/38
f 34/54/34 40/55/40 39/56/39
f 41/57/41 35/45/35 42/58/42
f 36/47/36 43/59/43 42/58/42
f 36/47/36 37/49/37 44/60/44
f 38/51/38 45/61/45 44/60/44
f 38/51/38 39/53/39 46/62/46
f 40/55/40 47/63/47 46/64/46
f 42/65/42 48/66/48 49/67/49
f 43/59/43 50/68/50 48/69/48
f 44/60/44 51/70/51 50/68/50
f 45/61/45 52/71/52 51/70/51
f 46/64/46 53/72/53 52/73/52
f 47/63/47 54/74/54 53/72/53
f 49/67/49 48/66/48 55/75/55
f 50/76/50 56/77/56 55/75/55
f 51/70/51 57/78/57 56/79/56
f 52/73/52 58/80/58 57/81/57
f 52/73/52 53/72/53 59/82/59
f 54/74/54 60/83/60 59/82/59
f 55/75/55 61/84/61 62/85/62
f 56/77/56 63/86/63 61/84/61
f 56/77/56 57/87/57 64/88/64
f 58/80/58 65/89/65 64/90/64
f 58/80/58 59/82/59 66/91/66
f 60/83/60 67/92/67 66/91/66
f 61/84/61 68/93/68 69/94/69
f 63/86/63 70/95/70 68/93/68
f 63/86/63 64/88/64 71/96/71
f 65/89/65 72/97/72 71/98/71
f 65/89/65 66/91/66 73/99/73
f 67/92/67 74/100/74 73/99/73
f 69/94/69 68/93/68 75/101/75
f 70/95/70 76/102/76 75/101/75
f 70/95/70 71/96/71 77/103/77
f 72/104/72 78/105/78 77/106/77
f 72/97/72 73/99/73 79/107/79
f 74/100/74 80/108/80 79/107/79
f 76/102/76 81/109/81 82/110/82
f 78/105/78 79/111/79 83/112/83
f 80/108/80 84/113/84 83/114/83
f 86/115/85 1/1/1 85/116/86
f 2/2/2 1/1/1 82/110/82
f 81/117/81 4/5/4 2/4/2
f 87/118/87 6/7/6 4/5/4
f 88/119/88 8/9/8 6/7/6
f 88/119/88 83/112/83 10/11/10
f 83/112/83 84/120/84 12/13/12
f 84/113/84 89/121/89 12/122/12
f 85/116/86 1/1/1 14/15/14
f 12/122/12 89/121/89 13/123/13
f 85/116/86 14/15/14 90/124/90
f 13/123/13 89/121/89 20/125/20
f 85/116/86 90/124/90 22/29/22
f 20/125/20 89/121/89 27/126/27
f 85/116/86 22/29/22 29/127/29
f 27/126/27 89/121/89 34/54/34
f 85/116/86 29/127/29 41/128/41
f 34/54/34 89/121/89 40/55/40
f 85/116/86 41/128/41 91/129/91
f 40/55/40 89/121/89 47/63/47
f 85/116/86 91/129/91 49/67/49
f 47/63/47 89/121/89 54/74/54
f 85/116/86 49/67/49 92/130/92
f 54/74/54 89/121/89 60/83/60
f 85/116/86 92/130/92 62/85/62
f 60/83/60 89/121/89 67/92/67
f 85/116/86 62/85/62 69/94/69
f 67/92/67 89/121/89 74/100/74
f 85/116/86 69/94/69 93/131/93
f 74/100/74 89/121/89 80/108/80
f 85/116/86 93/131/93 86/115/85
f 75/101/75 82/110/82 86/115/85
f 76/132/76 77/106/77 87/118/87
f 78/105/78 88/119/88 87/118/87
f 80/108/80 89/121/89 84/113/84
f 14/15/14 1/1/1 3/3/3
f 3/133/3 2/4/2 5/6/5
f 4/5/4 6/7/6 5/6/5
f 6/7/6 8/9/8 7/8/7
f 8/9/8 10/11/10 9/10/9
f 10/11/10 12/13/12 11/12/11
f 90/124/90 14/15/14 15/16/15
f 15/30/15 3/17/3 16/19/16
f 16/19/16 5/18/5 17/21/17
f 7/20/7 9/22/9 17/21/17
f 18/23/18 9/22/9 19/25/19
f 11/24/11 13/26/13 19/25/19
f 90/124/90 15/16/15 22/29/22
f 21/39/21 15/30/15 23/31/23
f 23/31/23 16/19/16 24/32/24
f 17/21/17 18/23/18 24/32/24
f 18/23/18 19/25/19 25/33/25
f 19/25/19 20/27/20 26/34/26
f 22/134/22 21/36/21 29/38/29
f 28/135/28 21/39/21 30/40/30
f 30/40/30 23/31/23 31/41/31
f 24/32/24 25/33/25 31/41/31
f 32/42/32 25/33/25 33/43/33
f 26/34/26 27/35/27 33/43/33
f 41/57/41 29/38/29 35/45/35
f 28/37/28 30/46/30 35/45/35
f 30/46/30 31/48/31 36/47/36
f 31/48/31 32/50/32 37/49/37
f 32/50/32 33/52/33 38/51/38
f 33/136/33 34/54/34 39/56/39
f 91/137/91 41/57/41 42/58/42
f 35/45/35 36/47/36 42/58/42
f 43/59/43 36/47/36 44/60/44
f 37/49/37 38/51/38 44/60/44
f 45/61/45 38/51/38 46/62/46
f 39/56/39 40/55/40 46/64/46
f 91/129/91 42/65/42 49/67/49
f 42/58/42 43/59/43 48/69/48
f 43/59/43 44/60/44 50/68/50
f 44/60/44 45/61/45 51/70/51
f 45/138/45 46/64/46 52/73/52
f 46/64/46 47/63/47 53/72/53
f 92/130/92 49/67/49 55/75/55
f 48/66/48 50/76/50 55/75/55
f 50/68/50 51/70/51 56/79/56
f 51/139/51 52/73/52 57/81/57
f 58/80/58 52/73/52 59/82/59
f 53/72/53 54/74/54 59/82/59
f 92/130/92 55/75/55 62/85/62
f 55/75/55 56/77/56 61/84/61
f 63/86/63 56/77/56 64/88/64
f 57/81/57 58/80/58 64/90/64
f 65/89/65 58/80/58 66/91/66
f 59/82/59 60/83/60 66/91/66
f 62/85/62 61/84/61 69/94/69
f 61/84/61 63/86/63 68/93/68
f 70/95/70 63/86/63 71/96/71
f 64/90/64 65/89/65 71/98/71
f 72/97/72 65/89/65 73/99/73
f 66/91/66 67/92/67 73/99/73
f 93/131/93 69/94/69 75/101/75
f 68/93/68 70/95/70 75/101/75
f 76/102/76 70/95/70 77/103/77
f 71/140/71 72/104/72 77/106/77
f 78/141/78 72/97/72 79/107/79
f 73/99/73 74/100/74 79/107/79
f 75/101/75 76/102/76 82/110/82
f 88/119/88 78/105/78 83/112/83
f 79/107/79 80/108/80 83/114/83
f 82/110/82 1/1/1 86/115/85
f 82/142/82 81/117/81 2/4/2
f 81/117/81 87/118/87 4/5/4
f 87/118/87 88/119/88 6/7/6
f 8/9/8 88/119/88 10/11/10
f 10/11/10 83/112/83 12/13/12
f 93/131/93 75/101/75 86/115/85
f 81/117/81 76/132/76 87/118/87
f 77/106/77 78/105/78 87/118/87
